<?xml version="1.0" encoding="UTF-8" standalone="no"?>
<svg width="300px" height="250px" viewBox="0 0 300 250" version="1.1" xmlns="http://www.w3.org/2000/svg" xmlns:xlink="http://www.w3.org/1999/xlink">
    <!-- Generator: Sketch 39.1 (31720) - http://www.bohemiancoding.com/sketch -->
    <title>Stacked</title>
    <desc>Created with Sketch.</desc>
    <defs></defs>
    <g id="Page-1" stroke="none" stroke-width="1" fill="none" fill-rule="evenodd">
        <g id="Stacked" fill="#226BE4">
            <g id="icon-+-wordmark-inverse" transform="translate(75.000000, 71.000000)">
                <path d="M44.2720382,29.7428256 C43.7613191,30.7069997 43.5353868,31.6834979 43.6326226,32.6526933 C43.9732577,36.0657662 48.2446883,38.6510562 54.6550925,39.9276218 C54.6434305,40.4143544 54.7295356,41.597263 54.8963405,42.1557359 C55.2969152,43.4982697 56.1052851,44.7147165 57.224751,45.751063 C56.777542,47.3691661 56.7914358,50.9642193 60.1761111,53.5102547 C64.3886942,56.6790624 68.8018764,55.1036737 69.0060156,53.9688979 C66.4074737,53.6966883 60.7860889,52.9854143 58.4108778,46.7021515 C60.8959284,48.4334884 64.3853221,49.455079 68.2210275,49.3993689 C73.7316115,49.318233 79.2804714,45.1690331 78.1774267,42.1455939 C75.984096,43.8798738 72.3258384,45.210728 68.1050397,45.5983773 C62.2140614,46.1398847 58.608777,43.9603213 57.7871625,40.4255643 C62.0684714,40.9485065 67.0397588,40.958539 72.2964904,40.3470814 C87.5258805,38.576741 92.7553638,32.2999775 93.2456976,26.9393735 C93.4343634,24.8791715 93.1744161,23.3323009 92.577631,22.2609526 C99.8854522,18.2100791 104.189354,13.3744115 103.486196,9.04086564 C102.245395,1.39959739 85.9113468,-1.78766958 67.0017131,1.92172802 C48.0920794,5.62999055 33.7685997,14.8308403 35.0082823,22.4721085 C35.5517027,25.8181757 38.9901335,28.3101461 44.2720382,29.7428256 Z M47.5842519,30.461939 C47.5072106,30.8149019 47.5060872,31.1816899 47.4927452,31.6317332 C47.3654148,35.9736308 55.4587159,38.4798287 68.4129122,36.7680865 C81.3671085,35.0563444 87.6297553,30.8293892 87.1450061,26.5190444 C87.0889712,26.0246464 86.8964839,25.5594178 86.5799037,25.125638 C82.1209904,26.9639786 77.0014825,28.5106317 71.4927651,29.5912462 C62.4888704,31.3569496 54.0689189,31.5592815 47.5842519,30.461939 Z M69.9014624,22.3856209 C54.4901941,26.1381564 41.324165,25.9285553 40.4963239,21.9202164 C39.6673641,17.9107505 51.4898296,11.6193374 66.9022166,7.86792878 C82.313485,4.11652017 93.2163756,6.60356096 94.0453354,10.6130268 C94.8731764,14.6224927 85.3138495,18.6342123 69.9014624,22.3856209 Z" id="icon"></path>
                <path d="M9.46441036,73.0579023 C9.16176933,73.1112625 9.10674369,73.1646227 9.05171805,73.2179829 L8.94166676,73.751585 C8.14379496,76.8464769 7.37343598,79.9413689 6.68561546,82.7160995 C6.30043597,84.5303465 6.02530776,85.9710721 5.83271801,87.2250369 C5.53007698,85.6242308 5.17241031,84.1034649 4.78723082,82.315898 C3.9618462,79.0075653 3.27402568,76.2861948 2.75128208,74.0450661 C2.72376926,73.8316253 2.42112823,72.4709401 2.22853849,72.44426 C1.76082053,72.44426 1.37564104,72.4709401 0.880410266,72.5243003 C0.357666671,72.5776605 0.137564104,72.8177814 0,73.1379426 C0.220102567,73.6448646 0.68782052,75.832633 1.29310258,78.3672428 C2.22853849,81.9423766 3.32905132,86.3712736 3.98935902,88.7724829 C4.0994103,89.1726844 4.20946158,89.4661656 4.26448723,89.6262462 C4.26448723,89.6262462 5.06235903,90.346609 5.80520519,90.2665687 C6.35546161,90.2132085 6.65810264,90.0264477 7.04328213,89.7329666 C7.18084623,89.1460043 8.39141035,84.3169057 8.58400009,83.5431827 C9.10674369,81.5688551 9.68451293,78.7941244 10.0146668,77.1399581 C10.4548719,79.2743663 10.9776155,81.8089761 11.4178206,83.5698628 C11.9680771,85.6242308 12.435795,87.5718783 12.8484873,89.2527247 C12.903513,89.4394855 12.9310258,89.572886 12.9860514,89.7329666 C12.9860514,89.7329666 13.7839232,90.4266493 14.4992566,90.3199289 C15.049513,90.2665687 15.352154,90.0264477 15.7098207,89.7863268 C16.3151027,88.4256416 17.8833335,81.9957368 19.0113592,77.5668397 C19.4240515,76.0193937 19.7266925,74.8187891 20.0293336,73.751585 C20.1668977,73.2179829 20.1944105,72.8978217 20.1944105,72.7377411 L20.1944105,72.6310207 C19.9743079,72.5509804 19.7817182,72.5243003 19.4790771,72.5243003 C19.1764361,72.4709401 18.8462823,72.4709401 18.5436412,72.44426 C18.268513,72.44426 18.1034361,72.44426 18.0208976,72.5243003 C17.9383592,72.6577008 17.9108464,72.8444615 17.8283079,73.0845824 C17.2780515,75.5391519 16.5627181,78.420603 15.5447438,82.2625378 C15.1595643,84.1034649 14.8018976,85.6242308 14.4717437,87.3050772 C14.1415899,85.6242308 13.7839232,84.0234246 13.3712309,82.1558174 C12.4633078,78.5273234 11.7479745,75.7259126 11.3352822,74.018386 C11.2252309,73.5114641 11.0876668,73.1379426 10.895077,72.8978217 C10.6474617,72.8978217 10.3998463,72.9245018 10.1522309,72.9511819 C9.93212831,72.977862 9.71202575,73.0045421 9.46441036,73.0579023 L9.46441036,73.0579023 Z M22.9635645,78.2815849 C22.9910773,78.9752676 23.0185902,79.8023508 23.0185902,81.0296355 L23.0185902,85.7520137 C23.0185902,87.3795 22.9910773,88.953626 22.9910773,90.3143113 C24.5317953,90.2876312 24.9169748,90.2876312 25.1095645,90.0208302 C25.3571799,89.6473087 25.4397184,89.2204271 25.4397184,88.6067847 L25.4397184,79.5355497 C25.4397184,78.4149854 25.4122056,78.0147839 25.2196158,77.6412624 C24.0915902,77.6412624 23.2386927,77.7213027 22.9635645,78.2815849 Z M22.8427055,72.4880006 C22.8427055,73.5552047 23.1728594,74.0354465 24.1358081,74.0354465 C25.2638337,74.0354465 25.5389619,73.368444 25.5664748,72.4346404 C25.5939876,71.4741567 25.4013978,70.9939148 24.300885,70.9939148 C23.3104235,70.9939148 22.8427055,71.5008368 22.8427055,72.4880006 L22.8427055,72.4880006 Z M31.4277361,87.5905543 L31.4277361,73.7169009 C31.4277361,72.3828957 31.4002232,71.7692533 31.2351463,71.2356513 C30.1071207,71.2356513 29.281736,71.3156916 29.0066078,71.929334 C29.0341206,72.7297371 29.0616335,73.6368605 29.0616335,74.9441856 L29.0616335,88.4709977 L29.0616335,88.7377988 C29.0616335,89.2714008 29.281736,89.7783228 29.7219412,90.0718039 C30.0245822,90.2585646 30.3822489,90.4186452 30.7124027,90.4186452 C31.4277361,90.3919651 31.9504796,90.1251641 32.1705822,89.8050029 C32.1705822,89.6716024 32.1705822,89.1913605 32.198095,88.8178391 C31.3451976,88.9779197 31.4277361,87.5905543 31.4277361,87.5905543 L31.4277361,87.5905543 Z M37.4707793,87.5905543 L37.4707793,73.7169009 C37.4707793,72.3828957 37.4432665,71.7692533 37.2781896,71.2356513 C36.1501639,71.2356513 35.3247793,71.3156916 35.0496511,71.929334 C35.0771639,72.7297371 35.1046768,73.6368605 35.1046768,74.9441856 L35.1046768,88.4709977 L35.1046768,88.7377988 C35.1046768,89.2714008 35.3247793,89.7783228 35.7649845,90.0718039 C36.0676255,90.2585646 36.4252922,90.4186452 36.755446,90.4186452 C37.4707793,90.3919651 37.9935229,90.1251641 38.2136255,89.8050029 C38.2136255,89.6716024 38.2136255,89.1913605 38.2411383,88.8178391 C37.3882409,88.9779197 37.4707793,87.5905543 37.4707793,87.5905543 L37.4707793,87.5905543 Z M41.9426323,77.2786946 C40.5119656,77.2786946 40.0167349,77.4387752 39.8241451,77.892337 C40.9796836,80.9872289 42.905581,87.1503326 43.1531964,87.9507357 C43.3457862,88.5110179 43.4558375,88.8311791 43.7034528,89.1780205 C43.7309657,89.2313807 43.7859913,89.2580608 43.8410169,89.311421 C43.4558375,90.885547 42.60294,93.0466354 41.8600938,93.4201568 C41.0071964,93.7669982 40.2918631,93.473517 39.686581,93.6602777 C39.686581,93.6602777 39.5215041,94.1405196 39.5215041,94.3806405 C39.6590682,94.8342023 40.3193759,95.2610839 41.6124785,95.2610839 C42.8230426,95.2610839 44.2261964,94.1138395 45.7394016,90.351945 C47.2250939,86.3499296 48.6007349,81.6542315 49.3435811,78.69274 C49.4261196,78.425939 49.4811452,78.1858181 49.4811452,77.9723773 C49.4811452,77.7589364 49.4261196,77.5721757 49.3435811,77.4120951 C48.7933247,77.385415 48.4081452,77.3587349 48.133017,77.3587349 C47.6928119,77.3587349 47.5277349,77.4120951 47.3076324,77.5988558 C46.9224529,79.2530222 46.3721965,81.3607503 45.9044785,83.3884381 C45.519299,85.0159244 45.1066067,86.6967709 44.9690426,87.0702923 C44.8865041,86.8301714 44.5013246,85.1493249 44.0611195,83.5218387 C43.5383759,81.6542315 42.7680169,79.199662 42.4928887,78.3458987 C42.3828374,77.9190171 42.1077092,77.2786946 41.9426323,77.2786946 L41.9426323,77.2786946 Z M60.225974,73.0579023 C59.923333,73.1112625 59.8683074,73.1646227 59.8132817,73.2179829 L59.7032305,73.751585 C58.9053586,76.8464769 58.1349997,79.9413689 57.4471791,82.7160995 C57.0619997,84.5303465 56.7868714,85.9710721 56.5942817,87.2250369 C56.2916407,85.6242308 55.933974,84.1034649 55.5487945,82.315898 C54.7234099,79.0075653 54.0355894,76.2861948 53.5128458,74.0450661 C53.4853329,73.8316253 53.1826919,72.4709401 52.9901022,72.44426 C52.5223842,72.44426 52.1372047,72.4709401 51.641974,72.5243003 C51.1192304,72.5776605 50.8991278,72.8177814 50.7615637,73.1379426 C50.9816663,73.6448646 51.4493842,75.832633 52.0546663,78.3672428 C52.9901022,81.9423766 54.090615,86.3712736 54.7509227,88.7724829 C54.860974,89.1726844 54.9710253,89.4661656 55.0260509,89.6262462 C55.0260509,89.6262462 55.8239227,90.346609 56.5667689,90.2665687 C57.1170253,90.2132085 57.4196663,90.0264477 57.8048458,89.7329666 C57.9424099,89.1460043 59.152974,84.3169057 59.3455638,83.5431827 C59.8683074,81.5688551 60.4460766,78.7941244 60.7762305,77.1399581 C61.2164356,79.2743663 61.7391792,81.8089761 62.1793843,83.5698628 C62.7296407,85.6242308 63.1973587,87.5718783 63.610051,89.2527247 C63.6650766,89.4394855 63.6925895,89.572886 63.7476151,89.7329666 C63.7476151,89.7329666 64.5454869,90.4266493 65.2608203,90.3199289 C65.8110767,90.2665687 66.1137177,90.0264477 66.4713844,89.7863268 C67.0766664,88.4256416 68.6448972,81.9957368 69.7729229,77.5668397 C70.1856152,76.0193937 70.4882562,74.8187891 70.7908972,73.751585 C70.9284613,73.2179829 70.9559742,72.8978217 70.9559742,72.7377411 L70.9559742,72.6310207 C70.7358716,72.5509804 70.5432819,72.5243003 70.2406408,72.5243003 C69.9379998,72.4709401 69.6078459,72.4709401 69.3052049,72.44426 C69.0300767,72.44426 68.8649998,72.44426 68.7824613,72.5243003 C68.6999229,72.6577008 68.67241,72.8444615 68.5898716,73.0845824 C68.0396152,75.5391519 67.3242818,78.420603 66.3063074,82.2625378 C65.921128,84.1034649 65.5634613,85.6242308 65.2333074,87.3050772 C64.9031536,85.6242308 64.5454869,84.0234246 64.1327946,82.1558174 C63.2248715,78.5273234 62.5095382,75.7259126 62.0968459,74.018386 C61.9867946,73.5114641 61.8492305,73.1379426 61.6566407,72.8978217 C61.4090253,72.8978217 61.16141,72.9245018 60.9137946,72.9511819 C60.693692,72.977862 60.4735894,73.0045421 60.225974,73.0579023 L60.225974,73.0579023 Z M76.8370556,88.3901496 C74.9111582,88.3901496 73.6180556,87.456346 73.5905428,84.5215347 C74.0307479,84.5482148 74.3884146,84.5482148 74.8286197,84.5482148 C76.1217223,84.5482148 77.552389,84.4948546 78.4052864,84.3881342 C79.1481326,84.2814138 80.0560557,83.9879327 80.3311839,83.7744919 C80.4412351,83.3476102 80.4962608,82.7606479 80.4962608,82.2003658 C80.4962608,81.746804 80.468748,81.3199224 80.4412351,80.9197208 C80.1936198,78.625232 78.92803,77.1578263 76.4518761,77.1578263 C73.4254658,77.1578263 71.1694145,79.0787938 71.1694145,84.2280536 C71.1694145,86.4425021 71.6646453,88.1233486 72.627594,89.0838323 C73.700594,90.1243563 75.0762351,90.3644773 76.3693377,90.3644773 C77.2222351,90.3644773 78.0476197,90.2043966 78.4603121,90.0976762 C79.230671,89.9109155 80.0285428,89.3506333 80.0560557,88.8170313 C80.0285428,88.4968701 79.9735172,87.9899481 79.8909787,87.7498272 C79.0105685,88.2033889 77.9925941,88.3901496 76.8370556,88.3901496 L76.8370556,88.3901496 Z M120.346967,88.3901496 C118.42107,88.3901496 117.127967,87.456346 117.100454,84.5215347 C117.54066,84.5482148 117.898326,84.5482148 118.338531,84.5482148 C119.631634,84.5482148 121.062301,84.4948546 121.915198,84.3881342 C122.658044,84.2814138 123.565967,83.9879327 123.841096,83.7744919 C123.951147,83.3476102 124.006173,82.7606479 124.006173,82.2003658 C124.006173,81.746804 123.97866,81.3199224 123.951147,80.9197208 C123.703531,78.625232 122.437942,77.1578263 119.961788,77.1578263 C116.935378,77.1578263 114.679326,79.0787938 114.679326,84.2280536 C114.679326,86.4425021 115.174557,88.1233486 116.137506,89.0838323 C117.210506,90.1243563 118.586147,90.3644773 119.879249,90.3644773 C120.732147,90.3644773 121.557531,90.2043966 121.970224,90.0976762 C122.740583,89.9109155 123.538455,89.3506333 123.565967,88.8170313 C123.538455,88.4968701 123.483429,87.9899481 123.40089,87.7498272 C122.52048,88.2033889 121.502506,88.3901496 120.346967,88.3901496 L120.346967,88.3901496 Z M76.1767479,79.0916076 C77.4148249,79.0916076 78.0201069,79.8653306 78.157671,81.3594163 C78.157671,81.546177 78.1851838,81.7329378 78.1851838,81.9463786 C78.1851838,82.2932199 78.1301582,82.6133812 78.0476197,82.826822 C77.8825428,82.9335424 77.6624402,82.9602225 77.4148249,82.9869026 C76.8920813,83.0402628 75.7640556,83.0669429 74.6910556,83.0669429 L73.6455684,83.0669429 C73.7831325,80.4789729 74.8286197,79.2783683 75.9291325,79.1182877 C76.011671,79.0916076 76.0942095,79.0916076 76.1767479,79.0916076 L76.1767479,79.0916076 Z M119.68666,79.0916076 C120.924737,79.0916076 121.530019,79.8653306 121.667583,81.3594163 C121.667583,81.546177 121.695096,81.7329378 121.695096,81.9463786 C121.695096,82.2932199 121.64007,82.6133812 121.557531,82.826822 C121.392455,82.9335424 121.172352,82.9602225 120.924737,82.9869026 C120.401993,83.0402628 119.273967,83.0669429 118.200967,83.0669429 L117.15548,83.0669429 C117.293044,80.4789729 118.338531,79.2783683 119.439044,79.1182877 C119.521583,79.0916076 119.604121,79.0916076 119.68666,79.0916076 L119.68666,79.0916076 Z M82.9724529,79.0254335 C83.0274785,79.3455948 83.1375298,79.8258366 83.3851452,80.0926377 C83.6052478,80.0926377 83.880376,80.0125974 84.183017,79.8791968 C84.9808888,79.5590356 86.1089145,79.1855142 87.0718632,79.1855142 C88.2549145,79.1855142 88.3924786,79.8525167 88.3924786,81.0531214 L88.3924786,82.5738872 C88.1448632,82.520527 87.8422222,82.4938469 87.4845555,82.4938469 C87.2369401,82.4938469 86.9893247,82.4938469 86.7141965,82.520527 C85.0634273,82.6806076 82.0645298,83.5076908 82.0645298,86.7893435 C82.0645298,89.2439129 83.7428119,90.3111171 85.5036324,90.3111171 C86.2464786,90.3111171 86.9067863,90.2577568 87.5120683,89.9642757 C87.8147094,89.8041951 88.1448632,89.510714 88.3099401,89.3506333 C88.5850683,89.7241548 89.3004017,90.3111171 89.9607094,90.3111171 C90.6760427,90.2844369 91.1987863,89.9909558 91.4188889,89.6974747 C91.4188889,89.5373941 91.4188889,89.0838323 91.4464017,88.7103109 C90.5659914,88.8703915 90.6760427,87.4830261 90.6760427,87.4830261 C90.6760427,86.0689807 90.7310684,83.9345725 90.7310684,82.0936454 L90.7310684,80.8930407 C90.7310684,78.625232 90.0707607,77.317907 88.0348119,77.1845064 C87.567094,77.1578263 87.5120683,77.1578263 87.0718632,77.1578263 C85.2285042,77.2111866 83.5777349,77.9048692 82.9999657,78.4384713 C82.9724529,78.5185116 82.9449401,78.625232 82.9449401,78.7319524 C82.9449401,78.8386728 82.9449401,78.9453932 82.9724529,79.0254335 L82.9724529,79.0254335 Z M88.3286606,87.1086969 C88.3011478,87.2687775 88.273635,87.4288582 88.2461222,87.4822184 C87.8609427,87.9357801 86.9530196,88.3093016 86.127635,88.3093016 L85.9350452,88.3093016 C85.0821478,88.2559414 84.4768657,87.7756995 84.4768657,86.4150143 C84.4768657,84.7341678 85.6048914,84.1738856 86.9255068,83.9604448 C87.200635,83.9337647 87.503276,83.9070846 87.8334299,83.9070846 C88.0260196,83.9070846 88.2186094,83.9070846 88.3836863,83.9337647 L88.3836863,85.828052 C88.3836863,86.3883342 88.3836863,86.7885357 88.3286606,87.1086969 L88.3286606,87.1086969 Z M100.073716,87.9691302 C99.8536139,88.155891 98.5880241,88.5294124 98.1753318,88.5027323 C97.074819,88.5027323 96.8272036,87.4622083 96.7171523,85.9681225 C96.7171523,85.0876791 96.6896395,84.0471551 96.6896395,82.8732306 C96.6896395,81.7259862 96.7171523,80.4720213 96.7446651,79.2447366 C97.9277164,79.2447366 98.2853831,79.2447366 99.0007164,79.2180565 C99.220819,79.2180565 99.4409216,79.1913764 99.6610241,79.1646963 C100.046204,79.084656 100.211281,78.7911749 100.293819,77.4571697 L96.7446651,77.4571697 C96.7446651,76.3632855 96.772178,75.2427212 96.7996908,74.0154365 C95.5065882,74.0954768 94.928819,74.5490385 94.7362292,75.0826406 L94.5986651,77.4838498 C94.1859728,77.6706105 93.3330753,77.7506509 92.9478959,78.0708121 C92.7277933,78.2842529 92.7002805,78.1775325 92.7002805,79.0046157 C93.0304343,79.1646963 93.4706395,79.2714167 94.3510497,79.2714167 L94.3510497,85.8614021 C94.3510497,88.0224905 94.8187677,90.3436594 97.37746,90.3436594 C98.2303575,90.3436594 99.1657934,90.1568987 99.688537,89.8367374 C99.9086395,89.6766568 100.046204,89.5165762 100.101229,89.3031354 C100.128742,89.0630145 100.128742,88.7962134 100.128742,88.5560925 C100.128742,88.3426517 100.101229,88.1292109 100.073716,87.9691302 L100.073716,87.9691302 Z M104.877736,90.0325546 C105.097839,89.6590332 105.152864,89.2054715 105.152864,88.6451893 L105.152864,80.534438 C105.785659,79.9207957 106.748608,79.3338334 107.849121,79.3338334 C108.867095,79.3338334 109.796637,79.7873952 109.879176,81.4682416 C109.934201,81.7350427 109.934201,82.1085641 109.934201,82.6154861 L109.934201,89.0720709 C109.934201,89.5789929 109.989227,89.9791944 110.126791,90.2993557 C111.77756,90.2993557 112.107714,90.2459955 112.382842,89.9791944 C112.35533,88.9920306 112.35533,87.7647459 112.35533,86.2973402 L112.35533,82.3753651 C112.35533,78.8269114 111.584971,77.3595058 108.916227,77.3595058 C108.228407,77.3595058 107.381403,77.4929063 106.886172,77.679667 C106.335916,77.8931079 105.703121,78.2666293 105.152864,78.7735512 L105.152864,73.1173694 C105.152864,71.9968051 105.097839,71.6499638 104.932762,71.3564827 C103.777223,71.3564827 103.06189,71.4632031 102.731736,72.0501653 C102.759249,72.6638077 102.786762,73.4375307 102.786762,74.558095 L102.786762,84.7498943 C102.786762,86.9376627 102.759249,88.7519097 102.731736,90.2993557 C104.189916,90.2993557 104.520069,90.2993557 104.877736,90.0325546 Z M131.411092,79.557859 C131.548656,79.557859 131.713733,79.557859 131.906323,79.6112192 C132.126426,79.6378993 132.374041,79.6645794 132.566631,79.6645794 C132.704195,79.6645794 132.704195,79.6645794 132.814246,79.6378993 C133.1444,79.1576575 133.254451,78.4639748 133.254451,78.0904533 C133.171913,77.7169319 132.786733,77.5034911 132.0714,77.4234508 C131.576169,77.3434105 131.108451,77.476811 130.585708,77.6368916 C130.007938,77.8236523 129.347631,78.1438135 128.714836,78.6774156 C128.577272,78.2238539 128.357169,77.8770125 127.861938,77.8770125 C127.806913,77.8770125 127.751887,77.8770125 127.669349,77.9036926 C127.036554,78.1704936 126.7064,78.3572544 126.541323,78.517335 C126.733913,79.050937 126.89899,79.6645794 126.89899,80.5183427 L126.871477,85.0272801 C126.871477,87.1083281 126.843964,88.8158547 126.816451,90.2565802 C128.302143,90.2565802 128.632297,90.2299001 128.989964,89.9897792 C129.210067,89.6962981 129.237579,89.3761368 129.237579,88.9225751 L129.237579,80.4116223 C129.787836,79.8513401 130.503169,79.557859 131.411092,79.557859 L131.411092,79.557859 Z" id="wordmark-inverse"></path>
            </g>
        </g>
    </g>
</svg>