<?xml version="1.0" encoding="UTF-8" standalone="no"?>
<svg width="300px" height="250px" viewBox="0 0 300 250" version="1.1" xmlns="http://www.w3.org/2000/svg" xmlns:xlink="http://www.w3.org/1999/xlink">
    <!-- Generator: Sketch 39.1 (31720) - http://www.bohemiancoding.com/sketch -->
    <title>Adjacent Inverse</title>
    <desc>Created with Sketch.</desc>
    <defs>
        <rect id="path-1" x="0" y="0" width="302" height="250"></rect>
        <mask id="mask-2" maskContentUnits="userSpaceOnUse" maskUnits="objectBoundingBox" x="0" y="0" width="302" height="250" fill="white">
            <use xlink:href="#path-1"></use>
        </mask>
    </defs>
    <g id="Page-1" stroke="none" stroke-width="1" fill="none" fill-rule="evenodd">
        <g id="Adjacent-Inverse">
            <use id="Rectangle" stroke="#979797" mask="url(#mask-2)" stroke-width="2" fill="#003366" xlink:href="#path-1"></use>
            <g id="icon-+-wordmark-inverse" transform="translate(55.000000, 101.000000)" fill="#FFFFFF">
                <path d="M8.28700667,26.3937834 C7.83379455,27.2493915 7.63330224,28.115936 7.71958928,28.976 C8.02186891,32.0047609 11.8123364,34.2989473 17.5009291,35.4317716 C17.4905802,35.8636981 17.5669899,36.9134112 17.7150126,37.409 C18.0704825,38.6003645 18.78783,39.6798394 19.7812441,40.5994933 C19.3843908,42.035398 19.3967201,45.2256482 22.400281,47.485 C26.1385272,50.297 30.0547851,48.899 30.2359383,47.892 C27.9299922,47.6504412 22.9415753,47.0192567 20.8338129,41.4434892 C23.0390469,42.9798776 26.1355349,43.8864371 29.5393398,43.837 C34.429432,43.765 39.3534903,40.083 38.3746484,37.4 C36.4282868,38.939 33.181949,40.12 29.4364122,40.464 C24.2087581,40.9445337 21.0094287,39.0103891 20.280328,35.8736458 C24.0795615,36.3377046 28.491082,36.3466076 33.1559056,35.804 C46.6704664,34.233 51.3111098,28.663 51.7462321,23.906 C51.9136541,22.0777768 51.6829768,20.7050838 51.1533897,19.7543694 C57.6383503,16.1596242 61.4576328,11.8684528 60.8336503,8.02286417 C59.7325632,1.24200272 45.2377292,-1.58637799 28.4573202,1.70534144 C11.6769113,4.99605361 -1.03374458,13.1608877 0.0663496771,19.9417491 C0.548580996,22.9110491 3.59984449,25.1224237 8.28700667,26.3937834 Z M11.2262651,27.0319247 C11.1578987,27.3451439 11.1569018,27.6706316 11.1450621,28.07 C11.0320691,31.923 18.2140645,34.147 29.7096183,32.628 C41.205172,31.109 46.7626449,27.358 46.3324785,23.533 C46.2827531,23.0942713 46.1119398,22.6814274 45.8310066,22.2964912 C41.8741669,23.9278346 37.3311156,25.3003346 32.4426798,26.2592718 C24.4526236,27.8261571 16.9807586,28.0057064 11.2262651,27.0319247 Z M31.0305578,19.865 C17.3545982,23.195 5.671064,23.009 4.93643784,19.452 C4.20081894,15.894 14.6920748,10.311 28.369027,6.982 C42.0449866,3.653 51.7202117,5.86 52.4558306,9.418 C53.1904568,12.976 44.70751,16.536 31.0305578,19.865 Z" id="icon"></path>
                <path d="M80.3987178,17.8315825 C80.1301541,17.8789344 80.0813244,17.9262862 80.0324946,17.9736381 L79.9348351,18.4471565 C79.2268036,21.1935636 78.5431871,23.9399707 77.9328152,26.4022667 C77.5910069,28.0122295 77.3468581,29.2907294 77.175954,30.4034978 C76.9073903,28.9829424 76.5899969,27.6334148 76.2481886,26.0471279 C75.5157423,23.1113134 74.9053704,20.6963692 74.4414877,18.7075917 C74.4170728,18.5181843 74.1485092,17.3107122 73.9776051,17.2870363 C73.5625521,17.2870363 73.2207439,17.3107122 72.7812761,17.3580641 C72.3173934,17.4054159 72.1220744,17.6184992 72,17.9026103 C72.195319,18.3524528 72.6103719,20.2938785 73.1474992,22.5430912 C73.9776051,25.715665 74.9542001,29.6458682 75.5401572,31.7767013 C75.6378167,32.1318402 75.7354762,32.3922753 75.784306,32.5343309 C75.784306,32.5343309 76.4923374,33.1735808 77.1515391,33.102553 C77.6398366,33.0552012 77.9084003,32.8894697 78.2502086,32.6290346 C78.3722829,32.1081642 79.4465375,27.8228221 79.6174417,27.1362204 C80.0813244,25.384202 80.5940368,22.921906 80.8870153,21.4539988 C81.2776533,23.3480726 81.741536,25.5972853 82.132174,27.1598963 C82.6204716,28.9829424 83.0355245,30.7112848 83.4017476,32.2028679 C83.4505774,32.3685994 83.4749923,32.486979 83.523822,32.6290346 C83.523822,32.6290346 84.2318535,33.2446086 84.8666403,33.1499049 C85.3549378,33.102553 85.6235015,32.8894697 85.9408949,32.6763864 C86.4780222,31.4689143 87.8696702,25.7630168 88.8706801,21.8328135 C89.2369033,20.45961 89.5054669,19.3941935 89.7740306,18.4471565 C89.896105,17.9736381 89.9205199,17.689527 89.9205199,17.5474714 L89.9205199,17.4527677 C89.7252008,17.38174 89.5542967,17.3580641 89.2857331,17.3580641 C89.0171694,17.3107122 88.7241909,17.3107122 88.4556272,17.2870363 C88.2114785,17.2870363 88.0649892,17.2870363 87.9917446,17.3580641 C87.9184999,17.4764437 87.8940851,17.6421751 87.8208404,17.8552584 C87.3325429,20.0334434 86.6977561,22.5904431 85.7944056,25.999776 C85.4525973,27.6334148 85.1352039,28.9829424 84.8422254,30.4745255 C84.5492469,28.9829424 84.2318535,27.562387 83.8656303,25.9050724 C83.0599394,22.6851468 82.4251526,20.1991748 82.0589294,18.6839158 C81.9612699,18.2340732 81.8391955,17.9026103 81.6682914,17.689527 C81.4485575,17.689527 81.2288236,17.7132029 81.0090897,17.7368788 C80.8137707,17.7605547 80.6184516,17.7842307 80.3987178,17.8315825 L80.3987178,17.8315825 Z M92.3778672,22.4670784 C92.402282,23.0826524 92.4266969,23.8166061 92.4266969,24.9056985 L92.4266969,29.096337 C92.4266969,30.5405683 92.402282,31.9374477 92.402282,33.1449198 C93.7695152,33.1212439 94.1113234,33.1212439 94.2822276,32.8844847 C94.5019615,32.5530218 94.5752061,32.174207 94.5752061,31.6296607 L94.5752061,23.5798468 C94.5752061,22.5854581 94.5507912,22.2303192 94.3798871,21.8988563 C93.3788771,21.8988563 92.6220159,21.9698841 92.3778672,22.4670784 Z M92.2706169,17.3258517 C92.2706169,18.2728886 92.5635954,18.6990553 93.4181161,18.6990553 C94.4191261,18.6990553 94.6632748,18.1071572 94.6876897,17.2784999 C94.7121046,16.4261666 94.5412004,16 93.5646054,16 C92.6856698,16 92.2706169,16.4498425 92.2706169,17.3258517 L92.2706169,17.3258517 Z M99.888973,30.7278579 L99.888973,18.4163778 C99.888973,17.2325817 99.8645581,16.6880354 99.7180688,16.214517 C98.7170589,16.214517 97.9846126,16.2855447 97.7404638,16.830091 C97.7648787,17.5403687 97.7892935,18.3453501 97.7892935,19.5054703 L97.7892935,31.5091634 L97.7892935,31.7459226 C97.7892935,32.2194411 97.9846126,32.6692836 98.3752506,32.9297188 C98.6438142,33.0954502 98.9612076,33.2375058 99.2541862,33.2375058 C99.888973,33.2138299 100.352856,32.9770706 100.548175,32.6929596 C100.548175,32.5745799 100.548175,32.1484133 100.57259,31.8169504 C99.8157283,31.9590059 99.888973,30.7278579 99.888973,30.7278579 L99.888973,30.7278579 Z M105.25157,30.7278579 L105.25157,18.4163778 C105.25157,17.2325817 105.227155,16.6880354 105.080665,16.214517 C104.079655,16.214517 103.347209,16.2855447 103.10306,16.830091 C103.127475,17.5403687 103.15189,18.3453501 103.15189,19.5054703 L103.15189,31.5091634 L103.15189,31.7459226 C103.15189,32.2194411 103.347209,32.6692836 103.737847,32.9297188 C104.006411,33.0954502 104.323804,33.2375058 104.616783,33.2375058 C105.25157,33.2138299 105.715452,32.9770706 105.910771,32.6929596 C105.910771,32.5745799 105.910771,32.1484133 105.935186,31.8169504 C105.178325,31.9590059 105.25157,30.7278579 105.25157,30.7278579 L105.25157,30.7278579 Z M109.219892,21.5771136 C107.950318,21.5771136 107.510851,21.7191691 107.339946,22.1216598 C108.365371,24.8680669 110.074413,30.3372052 110.294147,31.0474829 C110.465051,31.5446773 110.56271,31.8287884 110.782444,32.1365754 C110.806859,32.1839272 110.855689,32.2076031 110.904518,32.254955 C110.56271,33.6518344 109.805849,35.5695842 109.146647,35.9010472 C108.389786,36.2088342 107.754999,35.948399 107.217872,36.1141305 C107.217872,36.1141305 107.071383,36.5402971 107.071383,36.7533804 C107.193457,37.1558711 107.779414,37.5346859 108.926913,37.5346859 C110.001168,37.5346859 111.246327,36.5166212 112.589145,33.178316 C113.907548,29.6269275 115.128292,25.459965 115.787494,22.8319375 C115.860739,22.5951783 115.909568,22.382095 115.909568,22.1926876 C115.909568,22.0032802 115.860739,21.8375487 115.787494,21.6954932 C115.299196,21.6718173 114.957388,21.6481413 114.713239,21.6481413 C114.322601,21.6481413 114.176112,21.6954932 113.980793,21.8612247 C113.638985,23.3291319 113.150687,25.1995298 112.735634,26.9989 C112.393826,28.4431313 112.027603,29.9347145 111.905528,30.2661774 C111.832284,30.0530941 111.490475,28.5615109 111.099837,27.1172796 C110.635955,25.459965 109.952338,23.2817801 109.708189,22.5241505 C109.61053,22.1453357 109.366381,21.5771136 109.219892,21.5771136 L109.219892,21.5771136 Z M125.444529,17.8315825 C125.175966,17.8789344 125.127136,17.9262862 125.078306,17.9736381 L124.980647,18.4471565 C124.272615,21.1935636 123.588999,23.9399707 122.978627,26.4022667 C122.636818,28.0122295 122.39267,29.2907294 122.221766,30.4034978 C121.953202,28.9829424 121.635809,27.6334148 121.294,26.0471279 C120.561554,23.1113134 119.951182,20.6963692 119.487299,18.7075917 C119.462884,18.5181843 119.194321,17.3107122 119.023417,17.2870363 C118.608364,17.2870363 118.266555,17.3107122 117.827088,17.3580641 C117.363205,17.4054159 117.167886,17.6184992 117.045812,17.9026103 C117.241131,18.3524528 117.656184,20.2938785 118.193311,22.5430912 C119.023417,25.715665 120.000012,29.6458682 120.585969,31.7767013 C120.683628,32.1318402 120.781288,32.3922753 120.830118,32.5343309 C120.830118,32.5343309 121.538149,33.1735808 122.197351,33.102553 C122.685648,33.0552012 122.954212,32.8894697 123.29602,32.6290346 C123.418095,32.1081642 124.492349,27.8228221 124.663253,27.1362204 C125.127136,25.384202 125.639848,22.921906 125.932827,21.4539988 C126.323465,23.3480726 126.787348,25.5972853 127.177986,27.1598963 C127.666283,28.9829424 128.081336,30.7112848 128.447559,32.2028679 C128.496389,32.3685994 128.520804,32.486979 128.569634,32.6290346 C128.569634,32.6290346 129.277665,33.2446086 129.912452,33.1499049 C130.400749,33.102553 130.669313,32.8894697 130.986706,32.6763864 C131.523834,31.4689143 132.915482,25.7630168 133.916492,21.8328135 C134.282715,20.45961 134.551279,19.3941935 134.819842,18.4471565 C134.941917,17.9736381 134.966331,17.689527 134.966331,17.5474714 L134.966331,17.4527677 C134.771012,17.38174 134.600108,17.3580641 134.331545,17.3580641 C134.062981,17.3107122 133.770002,17.3107122 133.501439,17.2870363 C133.25729,17.2870363 133.110801,17.2870363 133.037556,17.3580641 C132.964312,17.4764437 132.939897,17.6421751 132.866652,17.8552584 C132.378354,20.0334434 131.743568,22.5904431 130.840217,25.999776 C130.498409,27.6334148 130.181016,28.9829424 129.888037,30.4745255 C129.595058,28.9829424 129.277665,27.562387 128.911442,25.9050724 C128.105751,22.6851468 127.470964,20.1991748 127.104741,18.6839158 C127.007082,18.2340732 126.885007,17.9026103 126.714103,17.689527 C126.494369,17.689527 126.274635,17.7132029 126.054901,17.7368788 C125.859582,17.7605547 125.664263,17.7842307 125.444529,17.8315825 L125.444529,17.8315825 Z M140.185203,31.4374188 C138.476162,31.4374188 137.328663,30.6087615 137.304248,28.0044099 C137.694886,28.0280858 138.012279,28.0280858 138.402917,28.0280858 C139.550416,28.0280858 140.81999,27.980734 141.576851,27.8860303 C142.236053,27.7913266 143.041744,27.5308915 143.285893,27.3414841 C143.383552,26.9626693 143.432382,26.441799 143.432382,25.9446046 C143.432382,25.5421139 143.407967,25.1632991 143.383552,24.8081603 C143.163818,22.7720309 142.040734,21.4698551 139.843395,21.4698551 C137.157758,21.4698551 135.155738,23.1745216 135.155738,27.7439748 C135.155738,29.7090764 135.595206,31.2006596 136.449727,32.0529928 C137.401907,32.9763538 138.622651,33.1894371 139.77015,33.1894371 C140.527011,33.1894371 141.259458,33.0473816 141.625681,32.9526779 C142.309297,32.7869464 143.017329,32.289752 143.041744,31.8162336 C143.017329,31.5321225 142.968499,31.0822799 142.895255,30.8691966 C142.113978,31.2716873 141.210628,31.4374188 140.185203,31.4374188 L140.185203,31.4374188 Z M178.795899,31.4374188 C177.086857,31.4374188 175.939358,30.6087615 175.914943,28.0044099 C176.305581,28.0280858 176.622975,28.0280858 177.013613,28.0280858 C178.161112,28.0280858 179.430686,27.980734 180.187547,27.8860303 C180.846749,27.7913266 181.652439,27.5308915 181.896588,27.3414841 C181.994248,26.9626693 182.043077,26.441799 182.043077,25.9446046 C182.043077,25.5421139 182.018663,25.1632991 181.994248,24.8081603 C181.774514,22.7720309 180.651429,21.4698551 178.454091,21.4698551 C175.768454,21.4698551 173.766434,23.1745216 173.766434,27.7439748 C173.766434,29.7090764 174.205902,31.2006596 175.060423,32.0529928 C176.012603,32.9763538 177.233347,33.1894371 178.380846,33.1894371 C179.137707,33.1894371 179.870153,33.0473816 180.236377,32.9526779 C180.919993,32.7869464 181.628025,32.289752 181.652439,31.8162336 C181.628025,31.5321225 181.579195,31.0822799 181.50595,30.8691966 C180.724674,31.2716873 179.821324,31.4374188 178.795899,31.4374188 L178.795899,31.4374188 Z M139.599246,23.1858926 C140.697916,23.1858926 141.235043,23.8724943 141.357117,25.198346 C141.357117,25.3640775 141.381532,25.529809 141.381532,25.7192164 C141.381532,26.0270034 141.332702,26.3111144 141.259458,26.5005218 C141.112968,26.5952255 140.917649,26.6189014 140.697916,26.6425774 C140.234033,26.6899292 139.233023,26.7136051 138.280843,26.7136051 L137.353077,26.7136051 C137.475152,24.4170406 138.402917,23.351624 139.379512,23.2095685 C139.452757,23.1858926 139.526001,23.1858926 139.599246,23.1858926 L139.599246,23.1858926 Z M178.209942,23.1858926 C179.308611,23.1858926 179.845739,23.8724943 179.967813,25.198346 C179.967813,25.3640775 179.992228,25.529809 179.992228,25.7192164 C179.992228,26.0270034 179.943398,26.3111144 179.870153,26.5005218 C179.723664,26.5952255 179.528345,26.6189014 179.308611,26.6425774 C178.844729,26.6899292 177.843719,26.7136051 176.891538,26.7136051 L175.963773,26.7136051 C176.085847,24.4170406 177.013613,23.351624 177.990208,23.2095685 C178.063453,23.1858926 178.136697,23.1858926 178.209942,23.1858926 L178.209942,23.1858926 Z M145.629755,23.1271697 C145.678584,23.4112808 145.776244,23.8374474 145.995978,24.0742067 C146.191297,24.0742067 146.435446,24.0031789 146.704009,23.8847993 C147.412041,23.6006882 148.413051,23.2692253 149.267571,23.2692253 C150.317411,23.2692253 150.439486,23.8611233 150.439486,24.9265399 L150.439486,26.2760675 C150.219752,26.2287157 149.951188,26.2050398 149.633795,26.2050398 C149.414061,26.2050398 149.194327,26.2050398 148.950178,26.2287157 C147.485285,26.3707712 144.824064,27.1047248 144.824064,30.0168634 C144.824064,32.1950483 146.313371,33.1420853 147.875923,33.1420853 C148.535125,33.1420853 149.121082,33.0947334 149.658209,32.8342983 C149.926773,32.6922427 150.219752,32.4318076 150.366241,32.289752 C150.61039,32.621215 151.245176,33.1420853 151.831134,33.1420853 C152.46592,33.1184093 152.929803,32.8579742 153.125122,32.597539 C153.125122,32.4554835 153.125122,32.0529928 153.149537,31.7215299 C152.368261,31.8635854 152.46592,30.6324374 152.46592,30.6324374 C152.46592,29.3776135 152.51475,27.4835396 152.51475,25.8499009 L152.51475,24.7844844 C152.51475,22.7720309 151.928793,21.6119106 150.122092,21.493531 C149.707039,21.4698551 149.658209,21.4698551 149.267571,21.4698551 C147.631775,21.5172069 146.166882,22.132781 145.65417,22.6062994 C145.629755,22.6773272 145.60534,22.7720309 145.60534,22.8667346 C145.60534,22.9614383 145.60534,23.056142 145.629755,23.1271697 L145.629755,23.1271697 Z M150.382853,30.3002577 C150.358439,30.4423132 150.334024,30.5843687 150.309609,30.6317206 C149.967801,31.0342113 149.16211,31.3656742 148.429663,31.3656742 L148.258759,31.3656742 C147.501898,31.3183224 146.964771,30.8921557 146.964771,29.6846837 C146.964771,28.1931005 147.965781,27.6959061 149.137695,27.5064987 C149.381843,27.4828228 149.650407,27.4591469 149.943386,27.4591469 C150.11429,27.4591469 150.285194,27.4591469 150.431683,27.4828228 L150.431683,29.1638133 C150.431683,29.6610077 150.431683,30.0161466 150.382853,30.3002577 L150.382853,30.3002577 Z M160.805416,31.0638062 C160.610097,31.2295376 159.487013,31.5610006 159.120789,31.5373246 C158.144194,31.5373246 157.92446,30.6139636 157.826801,29.2881119 C157.826801,28.5068065 157.802386,27.5834455 157.802386,26.5417048 C157.802386,25.5236401 157.826801,24.4108717 157.851216,23.3217793 C158.901056,23.3217793 159.218449,23.3217793 159.853236,23.2981033 C160.048555,23.2981033 160.243874,23.2744274 160.439193,23.2507515 C160.781001,23.1797237 160.92749,22.9192886 161.000735,21.7354924 L157.851216,21.7354924 C157.851216,20.7647796 157.875631,19.7703908 157.900046,18.6812983 C156.752546,18.7523261 156.239834,19.1548168 156.06893,19.6283352 L155.946855,21.7591683 C155.580632,21.9248998 154.823771,21.9959276 154.481963,22.2800386 C154.286644,22.469446 154.262229,22.3747423 154.262229,23.108696 C154.555207,23.2507515 154.945845,23.3454552 155.727122,23.3454552 L155.727122,29.1934082 C155.727122,31.111158 156.142174,33.1709634 158.412758,33.1709634 C159.169619,33.1709634 159.999725,33.0052319 160.463608,32.7211208 C160.658927,32.5790653 160.781001,32.4370097 160.829831,32.2476023 C160.854246,32.034519 160.854246,31.7977598 160.854246,31.5846765 C160.854246,31.3952691 160.829831,31.2058617 160.805416,31.0638062 L160.805416,31.0638062 Z M165.068503,32.894889 C165.263822,32.5634261 165.312652,32.1609354 165.312652,31.663741 L165.312652,24.4662603 C165.874194,23.9217141 166.728715,23.4008438 167.70531,23.4008438 C168.60866,23.4008438 169.433536,23.8033345 169.506781,25.2949176 C169.55561,25.5316769 169.55561,25.8631398 169.55561,26.3129823 L169.55561,32.0425558 C169.55561,32.4923983 169.60444,32.8475371 169.726514,33.1316482 C171.191407,33.1316482 171.484386,33.0842964 171.728534,32.8475371 C171.70412,31.971528 171.70412,30.8824355 171.70412,29.5802597 L171.70412,26.099899 C171.70412,22.9510012 171.020503,21.6488254 168.65226,21.6488254 C168.041888,21.6488254 167.290257,21.7672051 166.850789,21.9329365 C166.362491,22.1223439 165.800949,22.4538068 165.312652,22.9036494 L165.312652,17.8843536 C165.312652,16.8899649 165.263822,16.5821779 165.117333,16.3217427 C164.091908,16.3217427 163.457121,16.4164464 163.164143,16.9373167 C163.188557,17.4818629 163.212972,18.1684647 163.212972,19.1628535 L163.212972,28.2070562 C163.212972,30.1484819 163.188557,31.7584447 163.164143,33.1316482 C164.458131,33.1316482 164.75111,33.1316482 165.068503,32.894889 Z M188.614203,23.5996441 C188.736278,23.5996441 188.882767,23.5996441 189.053671,23.6469959 C189.24899,23.6706718 189.468724,23.6943478 189.639628,23.6943478 C189.761702,23.6943478 189.761702,23.6943478 189.859362,23.6706718 C190.15234,23.2445052 190.25,22.6289312 190.25,22.2974683 C190.176755,21.9660054 189.834947,21.776598 189.20016,21.7055702 C188.760692,21.6345424 188.34564,21.7529221 187.881757,21.8949776 C187.369044,22.0607091 186.783087,22.3448201 186.221545,22.8183386 C186.099471,22.4158479 185.904152,22.1080609 185.464684,22.1080609 C185.415854,22.1080609 185.367025,22.1080609 185.29378,22.1317368 C184.732238,22.3684961 184.439259,22.5342275 184.29277,22.6762831 C184.463674,23.1498015 184.610163,23.6943478 184.610163,24.4519773 L184.585748,28.4532083 C184.585748,30.2999304 184.561334,31.8151894 184.536919,33.0936893 C185.855322,33.0936893 186.148301,33.0700134 186.465694,32.8569301 C186.661013,32.5964949 186.685428,32.3123838 186.685428,31.9098931 L186.685428,24.3572736 C187.173725,23.8600792 187.808512,23.5996441 188.614203,23.5996441 L188.614203,23.5996441 Z" id="wordmark-inverse"></path>
            </g>
        </g>
    </g>
</svg>