<?xml version="1.0" encoding="UTF-8" standalone="no"?>
<svg
   xmlns:dc="http://purl.org/dc/elements/1.1/"
   xmlns:cc="http://creativecommons.org/ns#"
   xmlns:rdf="http://www.w3.org/1999/02/22-rdf-syntax-ns#"
   xmlns:svg="http://www.w3.org/2000/svg"
   xmlns="http://www.w3.org/2000/svg"
   xmlns:xlink="http://www.w3.org/1999/xlink"
   xmlns:sodipodi="http://sodipodi.sourceforge.net/DTD/sodipodi-0.dtd"
   xmlns:inkscape="http://www.inkscape.org/namespaces/inkscape"
   width="1600pt"
   height="484pt"
   viewBox="0 0 564.44447 170.74444"
   version="1.1"
   id="svg8"
   inkscape:version="1.0.1 (3bc2e813f5, 2020-09-07)"
   sodipodi:docname="init.svg"
   inkscape:export-filename="C:\Users\rohan\OneDrive\Desktop\viznswlogo.png"
   inkscape:export-xdpi="96"
   inkscape:export-ydpi="96">
  <defs
     id="defs2">
    <linearGradient
       inkscape:collect="always"
       id="linearGradient2888">
      <stop
         style="stop-color:#00d3ff;stop-opacity:1;"
         offset="0"
         id="stop2884" />
      <stop
         style="stop-color:#0000ff;stop-opacity:1"
         offset="1"
         id="stop2886" />
    </linearGradient>
    <rect
       x="96.043747"
       y="155.31042"
       width="139.65102"
       height="22.75771"
       id="rect2764" />
    <linearGradient
       inkscape:collect="always"
       xlink:href="#linearGradient2888"
       id="linearGradient2792"
       x1="140.78511"
       y1="157.95432"
       x2="141.02885"
       y2="182.34113"
       gradientUnits="userSpaceOnUse" />
    <radialGradient
       inkscape:collect="always"
       xlink:href="#linearGradient2888"
       id="radialGradient2834"
       cx="136.29347"
       cy="142.08656"
       fx="136.29347"
       fy="142.08656"
       r="5.8098073"
       gradientTransform="matrix(0.37748876,-0.39576711,0.38113414,0.4942703,-83.28219,87.288695)"
       gradientUnits="userSpaceOnUse" />
    <radialGradient
       inkscape:collect="always"
       xlink:href="#linearGradient2888"
       id="radialGradient2838"
       gradientUnits="userSpaceOnUse"
       gradientTransform="matrix(0.23995836,-0.24043883,0.24227562,0.3002821,-49.771765,97.578145)"
       cx="136.29347"
       cy="142.08656"
       fx="136.29347"
       fy="142.08656"
       r="5.8098073" />
    <radialGradient
       inkscape:collect="always"
       xlink:href="#linearGradient2888"
       id="radialGradient2842"
       gradientUnits="userSpaceOnUse"
       gradientTransform="matrix(0.20224552,-0.2182258,0.20419858,0.27254042,-36.72359,102.48218)"
       cx="136.29347"
       cy="142.08656"
       fx="136.29347"
       fy="142.08656"
       r="5.8098073" />
    <radialGradient
       inkscape:collect="always"
       xlink:href="#linearGradient2888"
       id="radialGradient2846"
       gradientUnits="userSpaceOnUse"
       gradientTransform="matrix(0.29192796,-0.31982977,0.29474708,0.39943278,-60.768733,84.028467)"
       cx="136.29347"
       cy="142.08656"
       fx="136.29347"
       fy="142.08656"
       r="5.8098073" />
    <filter
       inkscape:collect="always"
       style="color-interpolation-filters:sRGB"
       id="filter2921"
       x="-3.5494591e-05"
       width="1.000071"
       y="-5.7505305e-05"
       height="1.000115">
      <feGaussianBlur
         inkscape:collect="always"
         stdDeviation="0.0033731592"
         id="feGaussianBlur2923" />
    </filter>
  </defs>
  <sodipodi:namedview
     id="base"
     pagecolor="#ffffff"
     bordercolor="#666666"
     borderopacity="1.0"
     inkscape:pageopacity="0.0"
     inkscape:pageshadow="2"
     inkscape:zoom="0.35355339"
     inkscape:cx="847.20686"
     inkscape:cy="522.64323"
     inkscape:document-units="mm"
     inkscape:current-layer="g2899"
     inkscape:document-rotation="0"
     showgrid="false"
     inkscape:snap-text-baseline="false"
     inkscape:window-width="1920"
     inkscape:window-height="1017"
     inkscape:window-x="-8"
     inkscape:window-y="-8"
     inkscape:window-maximized="1"
     units="pt" />
  <metadata
     id="metadata5">
    <rdf:RDF>
      <cc:Work
         rdf:about="">
        <dc:format>image/svg+xml</dc:format>
        <dc:type
           rdf:resource="http://purl.org/dc/dcmitype/StillImage" />
        <dc:title></dc:title>
      </cc:Work>
    </rdf:RDF>
  </metadata>
  <g
     inkscape:label="Layer 1"
     inkscape:groupmode="layer"
     id="layer1">
    <g
       id="g2899"
       transform="matrix(1.5796055,0,0,1.4001888,98.476803,-49.023351)"
       style="filter:url(#filter2921)">
      <g
         aria-label="The Initiative"
         transform="matrix(1.7495874,0,0,2.641154,-91.898793,-308.70032)"
         id="text2762"
         style="font-style:normal;font-variant:normal;font-weight:normal;font-stretch:normal;font-size:19.2003px;line-height:1.25;font-family:'Yet R';-inkscape-font-specification:'Yet R, Normal';font-variant-ligatures:normal;font-variant-caps:normal;font-variant-numeric:normal;font-variant-east-asian:normal;white-space:pre;shape-inside:url(#rect2764);mix-blend-mode:normal;fill:url(#linearGradient2792);fill-opacity:1;fill-rule:nonzero">
        <path
           d="m 97.317989,160.56063 q -0.825013,-0.075 -0.825013,1.27502 0,1.35002 0.825013,1.20002 0.975015,-0.1125 1.762527,-0.15 0.787513,-0.0375 1.612524,0.075 0.225,0 0.30001,1.72502 0.075,1.72503 0.075,3.15005 0,1.38752 -0.075,2.73755 -0.0375,1.31252 -0.22501,2.66254 -0.1125,0.82501 1.42502,0.82501 1.53753,0 1.42503,-0.82501 -0.15001,-1.35002 -0.26251,-2.66254 -0.1125,-1.35003 -0.1125,-2.73755 0,-1.42502 0.1125,-3.15005 0.1125,-1.72502 0.33751,-1.72502 0.67501,-0.18751 1.57502,-0.11251 0.90002,0.075 1.72503,0.18751 0.86251,0.15 0.86251,-1.20002 0,-1.35002 -0.86251,-1.27502 -1.12502,0.0375 -2.36254,0.15 -1.20002,0.075 -2.43754,0.075 -1.27502,0 -2.512534,-0.075 -1.23752,-0.1125 -2.362537,-0.15 z"
           id="path39" />
        <path
           d="m 109.24318,161.38564 q 0.1125,1.57503 0.15,2.85005 0.075,1.27502 0.075,2.92504 0,1.72503 -0.075,3.07505 -0.0375,1.31252 -0.15,3.00005 -0.0375,0.82501 1.31252,0.82501 1.35002,0 1.23751,-0.82501 -0.1125,-1.42503 -0.225,-2.62504 -0.075,-1.23752 -0.075,-2.47504 0,-0.86252 0.52501,-1.68753 0.52501,-0.86251 1.57502,-0.86251 0.86252,0 1.23752,0.45 0.37501,0.41251 0.41251,1.42503 0.075,1.27502 0.075,2.73754 0,1.46252 -0.225,3.03755 -0.11251,0.82501 1.27502,0.82501 1.42502,0 1.35002,-0.82501 -0.22501,-1.80003 -0.22501,-3.33756 0,-1.57502 0.15001,-3.41255 0.075,-1.23752 -0.97502,-2.13753 -1.01251,-0.93752 -2.47504,-0.93752 -0.78751,0 -1.53752,0.26251 -0.75001,0.2625 -1.08752,0.78751 0.075,-0.86251 0.1125,-1.53752 0.075,-0.71252 0.1125,-1.53753 0.11251,-0.86251 -1.27501,-0.86251 -1.38753,0 -1.27502,0.86251 z"
           id="path41" />
        <path
           d="m 123.7934,163.41067 q -2.13753,0 -3.41255,1.46253 -1.23752,1.42502 -1.23752,4.01256 0,2.25003 1.20002,3.78756 1.23752,1.53752 3.52505,1.53752 1.80003,0 2.92505,-0.86251 1.16252,-0.90002 1.42502,-2.28754 0.1125,-0.56251 -1.20002,-0.60001 -1.31252,-0.0375 -1.42502,0.60001 -0.0375,0.33751 -0.48751,0.67501 -0.45001,0.30001 -1.31252,0.30001 -0.82501,0 -1.46252,-0.67501 -0.63751,-0.71251 -0.71251,-1.72503 h 6.6751 q 0.22501,-2.81254 -1.01251,-4.50007 -1.23752,-1.72503 -3.48756,-1.72503 z m -0.075,2.17504 q 1.08752,0 1.57502,0.63751 0.52501,0.63751 0.52501,1.38752 h -4.20006 q 0.1125,-0.75001 0.56251,-1.38752 0.4875,-0.63751 1.53752,-0.63751 z"
           id="path43" />
        <path
           d="m 137.59362,161.31064 q 0.075,1.72503 0.1125,3.03755 0.0375,1.31252 0.0375,2.88754 0,1.57503 -0.0375,2.92505 -0.0375,1.31252 -0.1125,3.07505 -0.0375,0.82501 1.31252,0.82501 1.38752,0 1.38752,-0.82501 -0.1125,-1.76253 -0.1875,-3.11255 -0.0375,-1.38752 -0.0375,-2.88755 0,-1.53752 0.0375,-2.85004 0.075,-1.35002 0.1875,-3.07505 0,-0.86251 -1.38752,-0.86251 -1.35002,0 -1.31252,0.86251 z"
           id="path45" />
        <path
           d="m 147.45627,163.41067 q -0.90001,0 -1.57502,0.22501 -0.67501,0.1875 -1.12502,0.60001 0,-0.75002 -1.27502,-0.71251 -1.27502,0 -1.27502,0.63751 0.1875,2.51253 0.1875,4.61257 0,2.10003 -0.1875,4.68757 0,0.60001 1.31252,0.63751 1.31252,0.0375 1.23752,-0.63751 -0.1125,-1.53752 -0.1125,-2.58754 0,-1.08752 0.0375,-2.58754 0.075,-1.01252 0.52501,-1.80003 0.4875,-0.82501 1.50002,-0.82501 0.78751,0 1.01252,0.63751 0.2625,0.60001 0.2625,1.68753 0.075,1.57502 0.075,2.73754 0.0375,1.16252 -0.15,2.73754 -0.0375,0.60001 1.27502,0.63751 1.35002,0.0375 1.27502,-0.63751 -0.1125,-1.87503 -0.15,-3.45005 0,-1.61253 0.15,-3.45006 0.1875,-1.53752 -0.63751,-2.32503 -0.82501,-0.82502 -2.36254,-0.82502 z"
           id="path47" />
        <path
           d="m 153.75637,159.58561 q -0.56251,0 -0.97501,0.41251 -0.37501,0.37501 -0.37501,1.01252 0,0.5625 0.37501,0.97501 0.4125,0.37501 0.97501,0.37501 0.56251,0 0.97502,-0.37501 0.45,-0.41251 0.45,-0.97501 0,-0.63751 -0.45,-1.01252 -0.41251,-0.41251 -0.97502,-0.41251 z m -1.35002,4.87508 q 0.30001,2.13753 0.30001,4.35007 0,2.21253 -0.30001,4.42507 -0.0375,0.82501 1.38752,0.82501 1.42502,0 1.31252,-0.82501 -0.225,-2.13754 -0.225,-4.42507 0,-2.28754 0.225,-4.35007 0.1125,-0.86251 -1.35002,-0.86251 -1.46252,0 -1.35002,0.86251 z"
           id="path49" />
        <path
           d="m 158.33144,161.16064 q 0.1125,0.67501 0.1125,1.31252 0.0375,0.63751 0.0375,1.38752 -0.375,0 -0.82501,0 -0.41251,-0.0375 -0.75001,-0.15 -0.56251,-0.1125 -0.56251,1.12502 0,1.23752 0.56251,1.12501 0.3375,-0.1125 0.75001,-0.1125 0.45001,-0.0375 0.82501,-0.0375 0,1.23752 0,2.66254 0,1.42502 -0.075,2.66254 -0.0375,1.61253 1.38752,2.21254 1.42503,0.56251 3.26255,0.56251 0.67502,0 0.63751,-1.08752 0,-1.08752 -0.63751,-1.08752 -1.23751,0 -1.83752,-0.2625 -0.56251,-0.30001 -0.56251,-1.31252 0,-1.01252 0,-2.17503 0.0375,-1.16252 0.075,-2.17504 0.3375,0 0.82501,0.0375 0.52501,0 0.90002,0.1125 0.63751,0.11251 0.6,-1.08751 -0.0375,-1.23752 -0.6,-1.16252 -0.37501,0.0375 -0.90002,0.1125 -0.48751,0.0375 -0.82501,0.0375 0,-0.75001 0,-1.38752 0.0375,-0.63751 0.15,-1.31252 0.075,-0.67501 -1.27502,-0.63751 -1.31252,0 -1.27502,0.63751 z"
           id="path51" />
        <path
           d="m 166.31907,159.58561 q -0.56251,0 -0.97502,0.41251 -0.375,0.37501 -0.375,1.01252 0,0.5625 0.375,0.97501 0.41251,0.37501 0.97502,0.37501 0.56251,0 0.97502,-0.37501 0.45,-0.41251 0.45,-0.97501 0,-0.63751 -0.45,-1.01252 -0.41251,-0.41251 -0.97502,-0.41251 z m -1.35002,4.87508 q 0.3,2.13753 0.3,4.35007 0,2.21253 -0.3,4.42507 -0.0375,0.82501 1.38752,0.82501 1.42502,0 1.31252,-0.82501 -0.225,-2.13754 -0.225,-4.42507 0,-2.28754 0.225,-4.35007 0.1125,-0.86251 -1.35002,-0.86251 -1.46252,0 -1.35002,0.86251 z"
           id="path53" />
        <path
           d="m 172.09416,166.33572 q -0.0375,-0.33751 0.45,-0.60001 0.48751,-0.3 0.97502,-0.3 0.63751,0 1.08752,0.225 0.4875,0.225 0.4875,0.75001 0,0.45001 -0.71251,0.67501 -0.71251,0.225 -1.91253,0.52501 -1.38752,0.3375 -2.28753,1.23752 -0.86252,0.90001 -0.86252,2.36254 0,1.61252 0.93752,2.32503 0.97501,0.67501 2.13753,0.67501 1.20002,0 2.17504,-0.2625 0.97501,-0.26251 1.42502,-0.86252 0.1875,0.82502 0.86251,0.97502 0.71251,0.15 1.83753,0.15 0.67501,0 0.67501,-1.12502 0,-1.16251 -0.67501,-1.05001 -0.67501,0.1125 -0.86251,-0.15 -0.18751,-0.30001 -0.18751,-0.90002 v -4.42507 q 0,-1.42502 -1.08751,-2.28753 -1.05002,-0.86252 -2.81255,-0.86252 -1.57502,0 -2.81254,0.75002 -1.23752,0.71251 -1.31252,2.17503 0,0.67501 1.23752,0.67501 1.23752,0 1.23752,-0.67501 z m -0.45001,4.80007 q 0,-0.5625 0.33751,-0.93751 0.375,-0.41251 0.93751,-0.63751 0.52501,-0.3 1.23752,-0.3 0.71251,-0.0375 1.08752,0.15 v 1.27502 q 0,0.71251 -0.82502,1.08751 -0.78751,0.33751 -1.57502,0.33751 -0.48751,0 -0.86251,-0.30001 -0.33751,-0.3 -0.33751,-0.67501 z"
           id="path55" />
        <path
           d="m 181.84431,161.16064 q 0.1125,0.67501 0.1125,1.31252 0.0375,0.63751 0.0375,1.38752 -0.375,0 -0.82501,0 -0.41251,-0.0375 -0.75001,-0.15 -0.56251,-0.1125 -0.56251,1.12502 0,1.23752 0.56251,1.12501 0.3375,-0.1125 0.75001,-0.1125 0.45001,-0.0375 0.82501,-0.0375 0,1.23752 0,2.66254 0,1.42502 -0.075,2.66254 -0.0375,1.61253 1.38752,2.21254 1.42503,0.56251 3.26256,0.56251 0.67501,0 0.63751,-1.08752 0,-1.08752 -0.63751,-1.08752 -1.23752,0 -1.83753,-0.2625 -0.56251,-0.30001 -0.56251,-1.31252 0,-1.01252 0,-2.17503 0.0375,-1.16252 0.075,-2.17504 0.3375,0 0.82501,0.0375 0.52501,0 0.90002,0.1125 0.63751,0.11251 0.60001,-1.08751 -0.0375,-1.23752 -0.60001,-1.16252 -0.37501,0.0375 -0.90002,0.1125 -0.48751,0.0375 -0.82501,0.0375 0,-0.75001 0,-1.38752 0.0375,-0.63751 0.15,-1.31252 0.075,-0.67501 -1.27502,-0.63751 -1.31252,0 -1.27502,0.63751 z"
           id="path57" />
        <path
           d="m 189.83193,159.58561 q -0.56251,0 -0.97501,0.41251 -0.37501,0.37501 -0.37501,1.01252 0,0.5625 0.37501,0.97501 0.4125,0.37501 0.97501,0.37501 0.56251,0 0.97502,-0.37501 0.45001,-0.41251 0.45001,-0.97501 0,-0.63751 -0.45001,-1.01252 -0.41251,-0.41251 -0.97502,-0.41251 z m -1.35002,4.87508 q 0.30001,2.13753 0.30001,4.35007 0,2.21253 -0.30001,4.42507 -0.0375,0.82501 1.38752,0.82501 1.42503,0 1.31252,-0.82501 -0.225,-2.13754 -0.225,-4.42507 0,-2.28754 0.225,-4.35007 0.11251,-0.86251 -1.35002,-0.86251 -1.46252,0 -1.35002,0.86251 z"
           id="path59" />
        <path
           d="m 192.53198,164.8357 q 1.08752,2.17503 1.91253,4.23756 0.82501,2.02503 1.61253,4.38757 0.3,0.78751 1.42502,0.78751 1.16252,0 1.42502,-0.78751 0.75001,-2.36254 1.57502,-4.35007 0.82502,-2.02503 1.95004,-4.27506 0.4125,-0.78752 -0.97502,-1.16252 -1.35002,-0.37501 -1.57502,0.48751 -0.45001,1.83752 -1.05002,3.37505 -0.56251,1.53752 -1.35002,3.30005 -0.82501,-1.76253 -1.38752,-3.30005 -0.56251,-1.57503 -1.01252,-3.37505 -0.225,-0.86252 -1.57502,-0.45001 -1.31252,0.375 -0.97502,1.12502 z"
           id="path61" />
        <path
           d="m 207.83222,163.41067 q -2.13754,0 -3.41256,1.46253 -1.23752,1.42502 -1.23752,4.01256 0,2.25003 1.20002,3.78756 1.23752,1.53752 3.52506,1.53752 1.80003,0 2.92504,-0.86251 1.16252,-0.90002 1.42503,-2.28754 0.1125,-0.56251 -1.20002,-0.60001 -1.31252,-0.0375 -1.42503,0.60001 -0.0375,0.33751 -0.4875,0.67501 -0.45001,0.30001 -1.31252,0.30001 -0.82502,0 -1.46253,-0.67501 -0.63751,-0.71251 -0.71251,-1.72503 h 6.67511 q 0.225,-2.81254 -1.01252,-4.50007 -1.23752,-1.72503 -3.48755,-1.72503 z m -0.075,2.17504 q 1.08752,0 1.57503,0.63751 0.52501,0.63751 0.52501,1.38752 h -4.20007 q 0.1125,-0.75001 0.56251,-1.38752 0.48751,-0.63751 1.53752,-0.63751 z"
           id="path63" />
      </g>
      <g
         id="g2879"
         transform="matrix(1.4657311,-0.68877055,0.6021305,1.6307765,-292.62566,3.0807903)"
         style="fill:#000044;fill-opacity:1">
        <g
           id="g2882"
           style="fill:#000044;fill-opacity:1">
          <path
             style="fill:#000044;fill-opacity:1;stroke-width:0.0901709"
             d="m 149.68127,131.2399 c -0.21424,-0.41806 -0.15952,-1.54971 0.087,-1.80009 0.0491,-0.0498 0.13134,-0.23098 0.18284,-0.40258 0.0515,-0.17161 0.13309,-0.31217 0.18129,-0.31236 0.0482,-1.9e-4 0.19482,0.25323 0.32582,0.56316 0.28617,0.67704 0.49511,0.8187 1.50669,1.02153 0.52079,0.10442 0.72645,0.20072 1.09683,0.51359 0.40688,0.3437 4.09828,2.57844 4.25809,2.57781 0.11255,-4.4e-4 0.0749,-0.0798 -0.61409,-1.29536 -0.37188,-0.65607 -0.96201,-1.73567 -1.3114,-2.39911 l -0.63524,-1.20625 -0.27999,-3.12682 c -0.154,-1.71975 -0.36345,-3.68397 -0.46545,-4.36493 -0.22575,-1.50715 -0.1857,-2.57079 0.12801,-3.39988 0.20873,-0.55162 0.29455,-0.67664 0.84263,-1.2274 0.33562,-0.33728 0.82796,-0.79189 1.09409,-1.01024 0.55305,-0.45379 0.54221,-0.41005 0.34913,-1.4081 -0.28472,-1.9378 -0.2339,-1.45506 -0.55159,-3.17205 l -0.10894,-0.75194 -0.67683,-1.29738 c -0.28637,-0.94829 -1.26379,-3.61165 -1.49395,-4.07085 -0.12934,-0.25804 -0.3401,-0.48789 -0.83293,-0.90836 -1.04439,-0.89105 -3.56882,-3.73675 -4.11314,-4.636599 -1.00019,-1.65345 -1.86814,-4.29407 -2.02084,-6.14806 -0.10626,-1.29023 -0.0603,-1.39295 0.85026,-1.8998 0.37316,-0.20771 0.81827,-0.47077 0.98914,-0.58457 0.41679,-0.27759 0.59284,-0.12603 0.6487,0.55844 0.0589,0.72224 0.49978,2.25874 1.15954,4.04141 0.74001,1.99952 1.06131,2.70614 1.73442,3.81446 l 0.56482,0.93001 1.50655,1.038739 c 2.0851,1.43765 2.41335,1.71055 3.5161,2.92325 l 0.55372,0.8486 0.0565,0.17221 c 0.14828,0.45162 0.21651,0.98997 -0.38588,1.31668 l -0.45008,0.2441 0.0172,0.3521 c 0.0287,0.58856 0.37356,1.82179 0.66716,2.38596 0.44139,0.84817 0.76091,1.61295 0.93424,2.23607 0.0884,0.31799 0.20273,0.57611 0.25395,0.5736 0.0512,-0.003 0.35623,-0.3952 0.6778,-0.87264 l 1.14001,-1.60648 c 0.11013,-0.11184 0.63451,-0.93431 1.16527,-1.82772 0.78729,-1.32519 0.97048,-1.6945 0.99464,-2.00512 0.0163,-0.20942 0.10867,-0.56594 0.20529,-0.79227 l 0.17566,-0.4115 0.33396,-3.61435 c 1.74474,-1.097653 1.90492,1.22885 2.03052,2.46296 0.0546,0.45715 0.0195,0.45728 0.0546,0.45715 0.14497,-5.7e-4 0.40927,4.90153 0.28358,5.25973 -0.19537,0.55674 -0.64059,0.74986 -1.24647,0.54067 -0.95316,-0.32909 -1.70177,0.42928 -2.5424,2.57552 -0.47683,1.21743 -0.77449,1.67508 -1.86697,2.8705 -1.11487,1.21993 -1.01479,0.9541 -1.14076,3.03001 -0.0515,0.8487 -0.0157,1.37554 0.14875,2.18748 0.4929,2.43403 0.70166,2.93579 2.09692,5.0402 1.08442,1.6356 1.56938,2.51571 1.77703,3.225 0.0863,0.29488 0.19753,1.2238 0.2471,2.06425 0.0496,0.84045 0.11389,1.62675 0.14293,1.74732 0.13675,0.56784 2.41864,2.52297 3.69934,3.16961 1.32101,0.66699 1.85213,1.01471 2.43819,1.59627 0.66044,0.65536 1.39907,1.74632 1.76141,2.6016 0.1204,0.2842 0.23041,0.52949 0.24448,0.5451 0.0141,0.0156 0.12501,-0.15605 0.24653,-0.38145 0.15157,-0.28113 0.40382,-0.57812 0.80334,-0.9458 0.48033,-0.44204 0.6949,-0.57791 1.22433,-0.77524 0.7102,-0.26471 1.70385,-0.3158 2.22633,-0.11446 0.43929,0.16928 1.15425,0.97224 1.58903,1.78463 0.18573,0.34704 0.37395,0.62186 0.41827,0.61073 0.0443,-0.0111 0.8937,-0.53436 1.8875,-1.16271 1.84712,-1.16787 2.02751,-1.24247 2.29284,-0.9482 0.30671,0.34018 0.21243,0.42958 -1.94054,1.8402 l -2.01989,1.32341 -0.0112,0.82388 c -0.006,0.45313 -0.0781,1.02422 -0.15994,1.26909 l -0.14874,0.44521 -0.61102,0.40837 c -0.7875,0.52631 -0.77133,0.50561 -0.65577,0.8394 0.0543,0.15691 0.0715,0.39823 0.0382,0.53627 -0.0552,0.22885 -0.0963,0.26352 -0.46539,0.39329 -0.22265,0.0783 -0.79607,0.20443 -1.27426,0.28036 -0.4782,0.0759 -0.90013,0.1692 -0.93763,0.20728 -0.0375,0.0381 -0.16435,0.36296 -0.2819,0.72195 -0.24988,0.76317 -0.40924,0.96067 -0.72778,0.90194 -0.33809,-0.0623 -0.57368,-0.37315 -0.60894,-0.80336 -0.0293,-0.35731 -0.0465,-0.38374 -0.3323,-0.50948 -0.29339,-0.12909 -0.30762,-0.15546 -0.53451,-0.99123 l -0.23309,-0.85861 -0.4512,-0.3053 c -0.76901,-0.52034 -1.96566,-1.17557 -2.10923,-1.15491 -0.0752,0.0108 -0.34509,0.16088 -0.59969,0.33347 -0.44261,0.30003 -0.51807,0.31365 -1.72067,0.31076 -2.17438,-0.005 -2.75437,-0.32978 -4.58365,-2.56489 -0.47743,-0.58334 -1.36927,-1.62294 -1.98188,-2.31022 -0.93896,-1.05341 -1.19033,-1.38582 -1.60108,-2.11731 l -0.48724,-0.86773 -1.05034,-0.57804 c -2.85959,-2.05563 -2.9599,-2.09378 -4.93908,-3.39491 -0.12477,-0.08 -0.4696,-0.16404 -0.76629,-0.18665 -1.00602,-0.0767 -1.5592,-0.36872 -1.87847,-0.99173 z m 14.57895,-33.068209 0.15584,-2.926124 -0.28178,-1.631546 c -0.26057,-1.508776 -0.46333,-3.41382 0.0571,-2.96074 0.13722,0.11946 0.21434,0.3747 0.28947,0.95795 0.0946,0.73438 0.3104,1.68257 0.57411,2.52233 0.14254,0.45392 0.23924,2.64437 0.21383,4.84386 -0.0191,1.653719 1.63211,6.538989 0.36158,6.305699 -1.50162,-0.0945 -1.19503,-4.14298 -1.00889,-4.02565 l 0.13034,0.53868 0.71238,0.48732 c -2.33389,-0.97937 -1.37295,-0.95595 -1.20399,-4.111779 z"
             id="path2850"
             sodipodi:nodetypes="ccsssssssscsssssccccsssssscsscsscsscssccccssscccsssssscsssssssssssssssssccccssssssssssscssscssscccsccccssssscscccc" />
        </g>
      </g>
      <ellipse
         style="fill:url(#radialGradient2834);fill-opacity:1;fill-rule:nonzero;stroke:#000000;stroke-width:1.31554;stroke-linecap:round;stroke-linejoin:round;stroke-miterlimit:4;stroke-dasharray:none;stroke-opacity:0;paint-order:fill markers stroke"
         id="ellipse2818"
         cx="22.662388"
         cy="102.95831"
         rx="2.7216411"
         ry="3.151417"
         transform="matrix(0.90505296,-0.42529889,0.34637289,0.93809692,0,0)" />
      <ellipse
         style="fill:url(#radialGradient2838);fill-opacity:1;fill-rule:nonzero;stroke:#000000;stroke-width:0.817525;stroke-linecap:round;stroke-linejoin:round;stroke-miterlimit:4;stroke-dasharray:none;stroke-opacity:0;paint-order:fill markers stroke"
         id="ellipse2836"
         cx="17.574053"
         cy="107.09785"
         rx="1.7300661"
         ry="1.9145681"
         transform="matrix(0.90505296,-0.42529889,0.34637289,0.93809692,0,0)" />
      <ellipse
         style="fill:url(#radialGradient2842);fill-opacity:1;fill-rule:nonzero;stroke:#000000;stroke-width:0.715028;stroke-linecap:round;stroke-linejoin:round;stroke-miterlimit:4;stroke-dasharray:none;stroke-opacity:0;paint-order:fill markers stroke"
         id="ellipse2840"
         cx="20.037884"
         cy="111.12241"
         rx="1.4581618"
         ry="1.73769"
         transform="matrix(0.90505296,-0.42529889,0.34637289,0.93809692,0,0)" />
      <ellipse
         style="fill:url(#radialGradient2846);fill-opacity:1;fill-rule:nonzero;stroke:#000000;stroke-width:1.03999;stroke-linecap:round;stroke-linejoin:round;stroke-miterlimit:4;stroke-dasharray:none;stroke-opacity:0;paint-order:fill markers stroke"
         id="ellipse2844"
         cx="21.162668"
         cy="96.691528"
         rx="2.1047595"
         ry="2.5467429"
         transform="matrix(0.90505296,-0.42529889,0.34637289,0.93809692,0,0)" />
    </g>
  </g>
</svg>
